# xmcd CD database file
#
# Track frame offsets:
#	150
#	23373
#	37648
#	56450
#	76764
#	96960
#	115802
#	164722
#
# Disc length: 2303 seconds
#
# Revision: 0
# Processed by: cddbd v1.5.2PL0 Copyright (c) Steve Scherf et al.
# Submitted via: CDex 1.51
#
DISCID=4f08fd08
DTITLE=Groupthink - Diapason
DYEAR=2005
DGENRE=Jazz
TTITLE0=Cure (Mother's Revenge)
TTITLE1=The Vultures (They'll Starve)
TTITLE2=Racing to Red Lights
TTITLE3=I Know You
TTITLE4=2 Faces
TTITLE5=Why I Am Where I Am
TTITLE6=Sky Suite Part 1
TTITLE7=Sky Suite Part 2
EXTD=YEAR: 2005
EXTT0=
EXTT1=
EXTT2=
EXTT3=
EXTT4=
EXTT5=
EXTT6=
EXTT7=
PLAYORDER=
